<svg width="24" height="24" viewBox="0 0 24 24" fill="none" xmlns="http://www.w3.org/2000/svg">
<g clip-path="url(#clip0_2847_3866)">
<path fill-rule="evenodd" clip-rule="evenodd" d="M21.3333 0H2.66667C1.19391 0 0 1.19391 0 2.66667V21.3333C0 22.8061 1.19391 24 2.66667 24H21.3333C22.8061 24 24 22.8061 24 21.3333V16.9551L18.4589 12.3495L4.44202 23.9999H2.66667C1.69029 23.9999 0.836467 23.4752 0.371837 22.6923L17.306 8.61715C17.9743 8.06172 18.9435 8.06172 19.6118 8.61715L24 12.2645V2.66667C24 1.19391 22.8061 0 21.3333 0ZM6.03183 4.95411C4.96931 4.95411 4.10796 5.81545 4.10796 6.87798C4.10796 7.9405 4.96931 8.80185 6.03183 8.80185C7.09436 8.80185 7.9557 7.9405 7.9557 6.87798C7.9557 5.81545 7.09436 4.95411 6.03183 4.95411ZM1.70312 6.87798C1.70312 4.4873 3.64115 2.54927 6.03183 2.54927C8.42251 2.54927 10.3605 4.4873 10.3605 6.87798C10.3605 9.26866 8.42251 11.2067 6.03183 11.2067C3.64115 11.2067 1.70312 9.26866 1.70312 6.87798Z" fill="#1E1E1E"/>
</g>
<defs>
<clipPath id="clip0_2847_3866">
<rect width="24" height="24" fill="white"/>
</clipPath>
</defs>
</svg>
