<svg width="24" height="24" viewBox="0 0 24 24" fill="none" xmlns="http://www.w3.org/2000/svg">
<path d="M15.0001 16.9999V17.9999C15.0001 18.7956 14.6841 19.5586 14.1214 20.1212C13.5588 20.6838 12.7958 20.9999 12.0001 20.9999C11.2045 20.9999 10.4414 20.6838 9.8788 20.1212C9.3162 19.5586 9.00012 18.7956 9.00012 17.9999V16.9999M15.0001 16.9999H9.00012M15.0001 16.9999H18.5901C18.9731 16.9999 19.1651 16.9999 19.3201 16.9479C19.4659 16.8986 19.5984 16.8162 19.7071 16.7073C19.8159 16.5983 19.898 16.4658 19.9471 16.3199C20.0001 16.1639 20.0001 15.9719 20.0001 15.5859C20.0001 15.4169 20.0001 15.3329 19.9861 15.2519C19.9615 15.1005 19.9023 14.9568 19.8131 14.8319C19.7651 14.7649 19.7051 14.7049 19.5861 14.5859L19.1961 14.1959C19.1339 14.1337 19.0846 14.0597 19.051 13.9784C19.0173 13.8971 19.0001 13.8099 19.0001 13.7219V9.99992C19.0001 9.08066 18.8191 8.17041 18.4673 7.32113C18.1155 6.47185 17.5999 5.70018 16.9499 5.05017C16.2999 4.40016 15.5282 3.88454 14.6789 3.53276C13.8296 3.18098 12.9194 2.99992 12.0001 2.99992C11.0809 2.99992 10.1706 3.18098 9.32134 3.53276C8.47206 3.88454 7.70039 4.40016 7.05038 5.05017C6.40037 5.70018 5.88475 6.47185 5.53297 7.32113C5.18119 8.17041 5.00012 9.08066 5.00012 9.99992V13.7219C5.00019 13.8099 4.98291 13.8971 4.94928 13.9784C4.91565 14.0597 4.86633 14.1337 4.80412 14.1959L4.41412 14.5859C4.29412 14.7059 4.23513 14.7649 4.18813 14.8309C4.09815 14.9559 4.03826 15.1 4.01312 15.2519C4.00012 15.3319 4.00012 15.4169 4.00012 15.5859C4.00012 15.9719 4.00012 16.1639 4.05212 16.3199C4.10146 16.466 4.1839 16.5987 4.29302 16.7076C4.40213 16.8166 4.53496 16.8988 4.68113 16.9479C4.83613 16.9999 5.02712 16.9999 5.41012 16.9999H9.00012M18.0191 2.01392C19.398 3.05332 20.4843 4.43207 21.1721 6.01592M5.98212 2.01392C4.60286 3.05319 3.51625 4.43195 2.82812 6.01592" stroke="#1E1E1E" stroke-width="1.5" stroke-linecap="round" stroke-linejoin="round"/>
</svg>
