<svg width="60" height="29" viewBox="0 0 60 29" fill="none" xmlns="http://www.w3.org/2000/svg">
<path fill-rule="evenodd" clip-rule="evenodd" d="M4.6992 3.81178C2.96709 5.2288 1.6 7.61642 1.6 11.5679C1.6 15.1487 3.18188 18.2922 5.18587 20.9022C6.9832 23.2431 9.07392 25.0977 10.5737 26.4158C11.2761 25.8173 12.2235 24.8203 13.153 23.6061C14.3139 22.0896 15.3761 20.3256 15.878 18.716C16.1186 17.9444 16.208 17.0464 16.1621 16.1023C15.8329 16.2737 15.4935 16.4232 15.1484 16.551C12.6215 17.4874 9.57063 17.3522 7.71839 16.045C6.4603 15.1571 5.67031 13.8692 5.55036 12.4633C5.42947 11.0464 5.99791 9.61012 7.26186 8.46108C9.73546 6.21235 13.1268 6.82327 14.77 8.49166C15.9173 9.65661 16.7947 11.3803 17.2955 13.1885C17.9816 12.3365 18.4 11.25 18.4 9.91687C18.4 7.0569 17.316 5.06468 15.8255 3.77687C14.3151 2.47188 12.3424 1.85342 10.5412 1.85342C8.70012 1.85342 6.4614 2.37014 4.6992 3.81178ZM17.677 15.0816C19.0492 13.8982 20 12.1879 20 9.91687C20 6.60718 18.7251 4.16768 16.8716 2.56617C15.0378 0.981857 12.6811 0.253418 10.5412 0.253418C8.44106 0.253418 5.80919 0.836501 3.68609 2.57339C1.53291 4.33489 0 7.20451 0 11.5679C0 15.634 1.79638 19.115 3.9168 21.8766C5.85754 24.4042 8.1178 26.3888 9.61908 27.707C9.75657 27.8277 9.88769 27.9428 10.0116 28.0523L10.4789 28.4649L10.9932 28.1127C11.8972 27.4935 13.2118 26.1614 14.4235 24.5786C15.6405 22.9888 16.825 21.0539 17.4054 19.1922C17.7966 17.9376 17.8568 16.5011 17.677 15.0816ZM15.9402 14.387C15.9034 14.2099 15.8626 14.0329 15.8176 13.8563C15.3793 12.1367 14.581 10.58 13.63 9.61439C12.5263 8.49373 10.1117 8.03261 8.33814 9.64498C7.40209 10.4959 7.07054 11.4596 7.14456 12.3273C7.21953 13.206 7.71938 14.0873 8.64097 14.7377C9.93681 15.6523 12.3961 15.8646 14.5924 15.0507C15.0694 14.874 15.5231 14.6531 15.9402 14.387Z" fill="#FFC132"/>
<path d="M41.7714 5.70677V13.347H43.6051V15.448H41.7714V22.9286H39.4794V5.70677H41.7714ZM28.7258 6.20339H34.6661C35.4301 6.20339 36.0731 6.42622 36.5952 6.8719C37.1173 7.31758 37.4038 7.95426 37.4547 8.78195C37.4929 10.9721 37.2319 12.8312 36.6716 14.3593C36.1241 15.8873 35.1818 17.148 33.8447 18.1412C32.5077 19.1344 30.6995 19.8539 28.4202 20.2995L28 18.2367C29.8464 17.8801 31.2916 17.3199 32.3358 16.5558C33.3927 15.7918 34.1313 14.7922 34.5515 13.5571C34.9844 12.3219 35.1881 10.7557 35.1627 8.85835C35.1499 8.62914 35.1054 8.48271 35.029 8.41904C34.9653 8.34264 34.8443 8.30444 34.6661 8.30444H28.7258V6.20339Z" fill="#FFC132"/>
<path d="M48.3869 9.54597C48.3869 9.86431 48.7753 10.1126 49.552 10.2909C50.3288 10.4564 51.2456 10.5392 52.3025 10.5392C52.6845 10.5392 52.971 10.5328 53.162 10.5201C54.1171 10.4692 54.8174 10.3609 55.2631 10.1954C55.7215 10.0171 55.9889 9.78154 56.0653 9.48867C55.1994 9.3104 54.2699 9.16396 53.2766 9.04936C52.2961 8.92202 51.4239 8.85835 50.6599 8.85835C49.9595 8.85835 49.4056 8.91565 48.9981 9.03025C48.5907 9.13212 48.3869 9.30403 48.3869 9.54597ZM60 15.448H44.4904V13.347H51.1947V12.6211C49.6921 12.532 48.4633 12.2455 47.5083 11.7616C46.566 11.2777 46.0949 10.5392 46.0949 9.54597V5.63037H48.3869V7.04381C49.0873 6.8528 49.9532 6.7573 50.9846 6.7573C52.5381 6.7573 54.2444 6.9483 56.1035 7.33031V5.80228H58.3956V9.25946C58.3956 11.2968 56.6956 12.4174 53.2957 12.6211V13.347H60V15.448ZM46.2859 16.2502H58.2046V23.0882H49.6284C48.7116 23.0882 47.9794 22.8526 47.4319 22.3815C46.8971 21.9231 46.6297 21.2673 46.6297 20.4141C46.6297 20.1849 46.6488 19.9494 46.687 19.7074C46.827 19.2108 46.9862 18.7588 47.1645 18.3513H46.2859V16.2502ZM48.9026 20.5096C48.9026 20.7006 48.9536 20.828 49.0554 20.8916C49.17 20.9553 49.361 20.9871 49.6284 20.9871H55.9125V18.3513H49.6475C49.3292 18.9752 49.0936 19.561 48.9408 20.1085L48.9026 20.5096Z" fill="#FFC132"/>
</svg>
