<svg width="88" height="153" viewBox="0 0 88 153" fill="none" xmlns="http://www.w3.org/2000/svg">
<path fill-rule="evenodd" clip-rule="evenodd" d="M28.0976 10.9285C22.9013 15.1796 18.8 22.3424 18.8 34.1969C18.8 44.9393 23.5456 54.3697 29.5576 62.1998C34.9496 69.2224 41.2218 74.7862 45.7212 78.7405C47.8282 76.9449 50.6705 73.954 53.459 70.3114C56.9416 65.762 60.1282 60.4701 61.6339 55.6411C62.3557 53.3263 62.624 50.6325 62.4862 47.7999C61.4988 48.3141 60.4804 48.7626 59.4451 49.1463C51.8645 51.9555 42.7119 51.5497 37.1552 47.6281C33.3809 44.9643 31.0109 41.1009 30.6511 36.8831C30.2884 32.6324 31.9937 28.3235 35.7856 24.8764C43.2064 18.1302 53.3804 19.963 58.3099 24.9682C61.752 28.463 64.3842 33.6339 65.8865 39.0586C67.9449 36.5025 69.2 33.2433 69.2 29.2438C69.2 20.6639 65.9481 14.6872 61.4765 10.8238C56.9453 6.90879 51.0273 5.05342 45.6235 5.05342C40.1004 5.05342 33.3842 6.60358 28.0976 10.9285ZM67.0311 44.7381C71.1476 41.1876 74 36.0569 74 29.2438C74 19.3147 70.1754 11.9962 64.6147 7.19168C59.1135 2.43873 52.0433 0.253418 45.6235 0.253418C39.3232 0.253418 31.4276 2.00267 25.0583 7.21333C18.5987 12.4978 14 21.1067 14 34.1969C14 46.3951 19.3891 56.838 25.7504 65.123C31.5726 72.7059 38.3534 78.6596 42.8572 82.6141C43.2697 82.9763 43.6631 83.3217 44.0349 83.65L45.4367 84.888L46.9797 83.8312C49.6917 81.9738 53.6355 77.9774 57.2704 73.2291C60.9215 68.4596 64.475 62.6548 66.2163 57.0699C67.3899 53.306 67.5703 48.9964 67.0311 44.7381ZM61.8205 42.6542C61.7103 42.1229 61.5877 41.5918 61.4527 41.0622C60.1379 35.9034 57.7431 31.2331 54.8901 28.3363C51.5789 24.9744 44.3352 23.591 39.0144 28.4281C36.2063 30.981 35.2116 33.8721 35.4337 36.4751C35.6586 39.1111 37.1581 41.7551 39.9229 43.7064C43.8104 46.45 51.1883 47.0871 57.7772 44.6454C59.2083 44.1151 60.5694 43.4524 61.8205 42.6542Z" fill="#FFC132"/>
<path d="M37.8715 105.098V126.06H42.914V131.824H37.8715V152.349H31.5683V105.098H37.8715ZM1.996 106.46H18.3317C20.4327 106.46 22.2011 107.072 23.6368 108.294C25.0725 109.517 25.8604 111.264 26.0005 113.535C26.1056 119.544 25.3877 124.645 23.8469 128.837C22.3412 133.03 19.7499 136.489 16.073 139.214C12.3962 141.939 7.42372 143.913 1.15558 145.135L0 139.476C5.07754 138.497 9.05203 136.96 11.9235 134.864C14.8299 132.768 16.8609 130.025 18.0165 126.636C19.2071 123.247 19.7674 118.95 19.6974 113.744C19.6623 113.116 19.5398 112.714 19.3297 112.539C19.1546 112.33 18.8219 112.225 18.3317 112.225H1.996V106.46Z" fill="#FFC132"/>
<path d="M56.064 115.631C56.064 116.505 57.132 117.186 59.2681 117.675C61.4042 118.129 63.9254 118.356 66.8319 118.356C67.8824 118.356 68.6703 118.339 69.1956 118.304C71.8219 118.164 73.7479 117.867 74.9735 117.413C76.2341 116.924 76.9695 116.277 77.1796 115.474C74.7984 114.985 72.2421 114.583 69.5107 114.269C66.8144 113.919 64.4157 113.744 62.3146 113.744C60.3887 113.744 58.8654 113.902 57.7449 114.216C56.6243 114.496 56.064 114.967 56.064 115.631ZM88 131.824H45.3487V126.06H63.7854V124.068C59.6533 123.824 56.2741 123.038 53.6478 121.71C51.0565 120.383 49.7609 118.356 49.7609 115.631V104.888H56.064V108.766C57.99 108.242 60.3712 107.98 63.2076 107.98C67.4797 107.98 72.1721 108.504 77.2846 109.552V105.36H83.5878V114.845C83.5878 120.435 78.913 123.509 69.5633 124.068V126.06H88V131.824ZM50.2861 134.025H83.0625V152.787H59.4782C56.957 152.787 54.9435 152.14 53.4377 150.848C51.967 149.59 51.2316 147.791 51.2316 145.45C51.2316 144.821 51.2841 144.175 51.3892 143.511C51.7744 142.148 52.2121 140.908 52.7023 139.79H50.2861V134.025ZM57.4822 145.712C57.4822 146.236 57.6223 146.585 57.9024 146.76C58.2176 146.935 58.7429 147.022 59.4782 147.022H76.7594V139.79H59.5308C58.6553 141.502 58.0075 143.109 57.5873 144.611L57.4822 145.712Z" fill="#FFC132"/>
</svg>
